<svg width="29" height="30" viewBox="0 0 29 30" fill="none" xmlns="http://www.w3.org/2000/svg">
<path d="M21.9189 26.5549C20.8556 26.8691 19.5989 27.0141 18.1247 27.0141H10.8747C9.40057 27.0141 8.1439 26.8691 7.08057 26.5549C7.3464 23.4133 10.5726 20.9362 14.4997 20.9362C18.4268 20.9362 21.6531 23.4133 21.9189 26.5549Z" stroke="#292D32" stroke-width="1.5" stroke-linecap="round" stroke-linejoin="round"/>
<path d="M18.1248 2.84747H10.8748C4.83317 2.84747 2.4165 5.26414 2.4165 11.3058V18.5558C2.4165 23.1233 3.794 25.6246 7.08067 26.555C7.3465 23.4133 10.5728 20.9362 14.4998 20.9362C18.4269 20.9362 21.6532 23.4133 21.919 26.555C25.2057 25.6246 26.5832 23.1233 26.5832 18.5558V11.3058C26.5832 5.26414 24.1665 2.84747 18.1248 2.84747ZM14.4998 17.5529C12.1073 17.5529 10.174 15.6075 10.174 13.215C10.174 10.8225 12.1073 8.88914 14.4998 8.88914C16.8923 8.88914 18.8257 10.8225 18.8257 13.215C18.8257 15.6075 16.8923 17.5529 14.4998 17.5529Z" stroke="#292D32" stroke-width="1.5" stroke-linecap="round" stroke-linejoin="round"/>
<path d="M18.8255 13.215C18.8255 15.6075 16.8922 17.5528 14.4997 17.5528C12.1072 17.5528 10.1738 15.6075 10.1738 13.215C10.1738 10.8225 12.1072 8.8891 14.4997 8.8891C16.8922 8.8891 18.8255 10.8225 18.8255 13.215Z" stroke="#292D32" stroke-width="1.5" stroke-linecap="round" stroke-linejoin="round"/>
</svg>
