<svg width="29" height="29" viewBox="0 0 29 29" fill="none" xmlns="http://www.w3.org/2000/svg">
<path d="M9.66642 26.5833H19.3331C24.1906 26.5833 25.0606 24.6379 25.3143 22.2696L26.2206 12.6029C26.5468 9.65458 25.701 7.25 20.5414 7.25H8.45808C3.2985 7.25 2.45267 9.65458 2.77892 12.6029L3.68517 22.2696C3.93892 24.6379 4.80892 26.5833 9.66642 26.5833Z" stroke="black" stroke-width="1.5" stroke-miterlimit="10" stroke-linecap="round" stroke-linejoin="round"/>
<path d="M9.6665 7.24999V6.28332C9.6665 4.14457 9.6665 2.41666 13.5332 2.41666H15.4665C19.3332 2.41666 19.3332 4.14457 19.3332 6.28332V7.24999" stroke="black" stroke-width="1.5" stroke-miterlimit="10" stroke-linecap="round" stroke-linejoin="round"/>
<path d="M16.9163 15.7083V16.9167C16.9163 16.9288 16.9163 16.9288 16.9163 16.9408C16.9163 18.2579 16.9043 19.3333 14.4997 19.3333C12.1072 19.3333 12.083 18.27 12.083 16.9529V15.7083C12.083 14.5 12.083 14.5 13.2913 14.5H15.708C16.9163 14.5 16.9163 14.5 16.9163 15.7083Z" stroke="black" stroke-width="1.5" stroke-miterlimit="10" stroke-linecap="round" stroke-linejoin="round"/>
<path d="M26.1603 13.2917C23.369 15.3217 20.179 16.53 16.9165 16.9408" stroke="black" stroke-width="1.5" stroke-miterlimit="10" stroke-linecap="round" stroke-linejoin="round"/>
<path d="M3.16553 13.6179C5.88428 15.4788 8.95344 16.6025 12.083 16.9529" stroke="black" stroke-width="1.5" stroke-miterlimit="10" stroke-linecap="round" stroke-linejoin="round"/>
</svg>
