<svg width="23" height="24" viewBox="0 0 23 24" fill="none" xmlns="http://www.w3.org/2000/svg">
<g clip-path="url(#clip0_501_7243)">
<path d="M22.5033 6.91237L17.1063 1.39402C16.9451 1.22953 16.7527 1.09882 16.5404 1.00953C16.328 0.920235 16.1001 0.874149 15.8697 0.873962H7.39862C6.93887 0.873962 6.49794 1.0566 6.17284 1.3817C5.84775 1.70679 5.66511 2.14772 5.66511 2.60748V3.18531H5.08727C4.62752 3.18531 4.18659 3.36795 3.86149 3.69305C3.5364 4.01814 3.35376 4.45907 3.35376 4.91883V7.80802C3.35376 7.96127 3.41464 8.10824 3.523 8.21661C3.63137 8.32498 3.77835 8.38585 3.9316 8.38585C4.08485 8.38585 4.23182 8.32498 4.34019 8.21661C4.44856 8.10824 4.50944 7.96127 4.50944 7.80802V4.91883C4.50944 4.76557 4.57031 4.6186 4.67868 4.51023C4.78705 4.40187 4.93402 4.34099 5.08727 4.34099H5.66511V19.9426C5.66511 20.4024 5.84775 20.8433 6.17284 21.1684C6.49794 21.4935 6.93887 21.6761 7.39862 21.6761H19.5332V22.254C19.5332 22.4072 19.4723 22.5542 19.364 22.6626C19.2556 22.7709 19.1086 22.8318 18.9554 22.8318H5.08727C4.93402 22.8318 4.78705 22.7709 4.67868 22.6626C4.57031 22.5542 4.50944 22.4072 4.50944 22.254V10.1194C4.50944 9.96611 4.44856 9.81914 4.34019 9.71077C4.23182 9.60241 4.08485 9.54153 3.9316 9.54153C3.77835 9.54153 3.63137 9.60241 3.523 9.71077C3.41464 9.81914 3.35376 9.96611 3.35376 10.1194V22.254C3.35376 22.7137 3.5364 23.1546 3.86149 23.4797C4.18659 23.8048 4.62752 23.9875 5.08727 23.9875H18.9554C19.4151 23.9875 19.8561 23.8048 20.1812 23.4797C20.5063 23.1546 20.6889 22.7137 20.6889 22.254V21.6761H21.2667C21.7265 21.6761 22.1674 21.4935 22.4925 21.1684C22.8176 20.8433 23.0002 20.4024 23.0002 19.9426V8.12583C22.9999 7.67188 22.8214 7.23619 22.5033 6.91237ZM17.2219 3.18531L21.1974 7.23018H17.7997C17.6465 7.23018 17.4995 7.1693 17.3911 7.06093C17.2827 6.95257 17.2219 6.80559 17.2219 6.65234V3.18531ZM21.8446 19.9426C21.8446 20.0959 21.7837 20.2428 21.6753 20.3512C21.567 20.4596 21.42 20.5204 21.2667 20.5204H7.39862C7.24537 20.5204 7.0984 20.4596 6.99003 20.3512C6.88167 20.2428 6.82079 20.0959 6.82079 19.9426V2.60748C6.82079 2.45422 6.88167 2.30725 6.99003 2.19888C7.0984 2.09052 7.24537 2.02964 7.39862 2.02964H15.8697C15.9371 2.03156 16.0036 2.04525 16.0662 2.07009V6.65234C16.0662 7.1121 16.2488 7.55302 16.5739 7.87812C16.899 8.20322 17.3399 8.38585 17.7997 8.38585H21.8446V19.9426ZM13.7548 12.4307H14.9105V17.6313H13.7548V12.4307ZM13.7548 10.1194H14.9105V11.275H13.7548V10.1194Z" fill="black"/>
</g>
<defs>
<clipPath id="clip0_501_7243">
<rect width="23" height="23" fill="white" transform="translate(-0.000244141 0.930786)"/>
</clipPath>
</defs>
</svg>
