<svg width="23" height="27" viewBox="0 0 23 27" fill="none" xmlns="http://www.w3.org/2000/svg">
<path d="M17.8007 26.7808L17.8012 26.7812C18.027 27.004 18.392 27.0047 18.6159 26.7809C18.845 26.5547 18.845 26.1863 18.616 25.96C18.6159 25.9599 18.6158 25.9598 18.6157 25.9597L15.3427 22.6842C15.8865 21.9962 16.2514 21.158 16.3589 20.241H18.6873C21.1185 20.241 23.0998 18.2597 23.0998 15.8285V7.20093C23.0998 4.7696 21.1184 2.79098 18.6873 2.79098H14.9539V1.45348C14.9539 0.610097 14.2603 -0.0865723 13.4164 -0.0865723H9.58309C8.73924 -0.0865723 8.04559 0.610097 8.04559 1.45348V2.79098H4.31226C1.88108 2.79098 -0.100244 4.7696 -0.100244 7.20093V15.8285C-0.100244 18.2597 1.881 20.241 4.31226 20.241H6.64081C6.9292 22.6666 9.00044 24.5535 11.4998 24.5535C12.6395 24.5535 13.6899 24.1605 14.5245 23.5046L17.8007 26.7808ZM11.4998 15.9285C13.5682 15.9285 15.2331 17.5959 15.2331 19.6618C15.2331 21.7302 13.5683 23.3926 11.4998 23.3926C9.43123 23.3926 7.76642 21.7302 7.76642 19.6618C7.76642 17.5959 9.43136 15.9285 11.4998 15.9285ZM3.35392 12.5743H3.81743C4.06822 13.4027 4.84129 14.0118 5.74976 14.0118C6.65582 14.0118 7.42876 13.4026 7.67952 12.5743H15.32C15.5708 13.4027 16.3445 14.0118 17.2523 14.0118C18.1584 14.0118 18.9295 13.4025 19.1796 12.5743H19.6456C20.525 12.5743 21.3293 12.243 21.9414 11.6972V15.8285C21.9414 17.6324 20.4912 19.0827 18.6873 19.0827H16.3587C16.0703 16.6596 13.9991 14.7702 11.4998 14.7702C9.00031 14.7702 6.93173 16.6597 6.64091 19.0827H4.31226C2.50832 19.0827 1.05809 17.6324 1.05809 15.8285V11.6947C1.67011 12.2407 2.47436 12.5743 3.35392 12.5743ZM17.2523 11.1368C17.7307 11.1368 18.1055 11.5132 18.1055 11.9952C18.1055 12.4747 17.7305 12.8535 17.2523 12.8535C16.771 12.8535 16.394 12.4742 16.394 11.9952C16.394 11.5137 16.7709 11.1368 17.2523 11.1368ZM5.74976 11.1368C6.22881 11.1368 6.60809 11.5139 6.60809 11.9952C6.60809 12.474 6.22864 12.8535 5.74976 12.8535C5.26814 12.8535 4.88887 12.4739 4.88887 11.9952C4.88887 11.5141 5.26797 11.1368 5.74976 11.1368ZM4.31226 3.94932H18.6873C20.4912 3.94932 21.9414 5.3996 21.9414 7.20093V9.1176C21.9414 10.3926 20.9179 11.416 19.6456 11.416H19.1797C18.9314 10.5876 18.1601 9.97848 17.2523 9.97848C16.3445 9.97848 15.5708 10.5876 15.32 11.416H7.67974C7.43125 10.5875 6.65808 9.97848 5.74976 9.97848C4.84158 9.97848 4.06589 10.5873 3.81722 11.416H3.35392C2.08161 11.416 1.05809 10.3926 1.05809 9.1176V7.20093C1.05809 5.3996 2.50827 3.94932 4.31226 3.94932ZM9.58309 1.07176H13.4164C13.6323 1.07176 13.7956 1.23805 13.7956 1.45348V2.79098H9.20648V1.45348C9.20648 1.2377 9.3701 1.07176 9.58309 1.07176Z" fill="black" stroke="black" stroke-width="0.2"/>
</svg>
