<svg width="28" height="28" viewBox="0 0 28 28" fill="none" xmlns="http://www.w3.org/2000/svg">
<path d="M13.7312 13.571C13.6973 13.571 13.6747 13.571 13.6408 13.571C13.5844 13.5597 13.5053 13.5597 13.4376 13.571C10.1627 13.4694 7.6897 10.8947 7.6897 7.7215C7.6897 4.49186 10.3208 1.86072 13.5505 1.86072C16.7801 1.86072 19.4113 4.49186 19.4113 7.7215C19.4 10.8947 16.9156 13.4694 13.765 13.571C13.7537 13.571 13.7425 13.571 13.7312 13.571ZM13.5505 3.55459C11.2581 3.55459 9.38357 5.42914 9.38357 7.7215C9.38357 9.98 11.1452 11.7981 13.3924 11.8771C13.4489 11.8658 13.6069 11.8658 13.7537 11.8771C15.9671 11.7755 17.7061 9.95741 17.7174 7.7215C17.7174 5.42914 15.8429 3.55459 13.5505 3.55459Z" fill="#0C0C0D"/>
<path d="M13.7425 25.9135C11.5292 25.9135 9.30455 25.3489 7.62197 24.2196C6.05232 23.1807 5.19409 21.7579 5.19409 20.2108C5.19409 18.6638 6.05232 17.2296 7.62197 16.1794C11.0097 13.9322 16.4978 13.9322 19.863 16.1794C21.4214 17.2183 22.2909 18.6412 22.2909 20.1882C22.2909 21.7353 21.4326 23.1694 19.863 24.2196C18.1691 25.3489 15.9558 25.9135 13.7425 25.9135ZM8.55924 17.6023C7.47517 18.325 6.88796 19.251 6.88796 20.2221C6.88796 21.182 7.48646 22.108 8.55924 22.8194C11.3711 24.7052 16.1139 24.7052 18.9257 22.8194C20.0098 22.0967 20.597 21.1707 20.597 20.1995C20.597 19.2397 19.9985 18.3137 18.9257 17.6023C16.1139 15.7277 11.3711 15.7277 8.55924 17.6023Z" fill="#0C0C0D"/>
</svg>
