<svg width="29" height="29" viewBox="0 0 29 29" fill="none" xmlns="http://www.w3.org/2000/svg">
<path d="M9.79696 26.9501H5.01111C2.63003 26.9501 1.48096 25.8484 1.48096 23.5739V4.85699C1.48096 2.58253 2.64188 1.48083 5.01111 1.48083H9.79696C12.178 1.48083 13.3271 2.58253 13.3271 4.85699V23.5739C13.3271 25.8484 12.1662 26.9501 9.79696 26.9501ZM5.01111 3.25776C3.50665 3.25776 3.25788 3.66053 3.25788 4.85699V23.5739C3.25788 24.7704 3.50665 25.1731 5.01111 25.1731H9.79696C11.3014 25.1731 11.5502 24.7704 11.5502 23.5739V4.85699C11.5502 3.66053 11.3014 3.25776 9.79696 3.25776H5.01111Z" fill="#0C0C0D"/>
<path d="M23.4195 16.2885H18.6337C16.2526 16.2885 15.1035 15.1868 15.1035 12.9124V4.85699C15.1035 2.58253 16.2644 1.48083 18.6337 1.48083H23.4195C25.8006 1.48083 26.9497 2.58253 26.9497 4.85699V12.9124C26.9497 15.1868 25.7887 16.2885 23.4195 16.2885ZM18.6337 3.25776C17.1292 3.25776 16.8804 3.66053 16.8804 4.85699V12.9124C16.8804 14.1088 17.1292 14.5116 18.6337 14.5116H23.4195C24.924 14.5116 25.1727 14.1088 25.1727 12.9124V4.85699C25.1727 3.66053 24.924 3.25776 23.4195 3.25776H18.6337Z" fill="#0C0C0D"/>
<path d="M23.4195 26.9495H18.6337C16.2526 26.9495 15.1035 25.8478 15.1035 23.5733V21.441C15.1035 19.1666 16.2644 18.0649 18.6337 18.0649H23.4195C25.8006 18.0649 26.9497 19.1666 26.9497 21.441V23.5733C26.9497 25.8478 25.7887 26.9495 23.4195 26.9495ZM18.6337 19.8418C17.1292 19.8418 16.8804 20.2446 16.8804 21.441V23.5733C16.8804 24.7698 17.1292 25.1726 18.6337 25.1726H23.4195C24.924 25.1726 25.1727 24.7698 25.1727 23.5733V21.441C25.1727 20.2446 24.924 19.8418 23.4195 19.8418H18.6337Z" fill="#0C0C0D"/>
</svg>
