<svg width="29" height="30" viewBox="0 0 29 30" fill="none" xmlns="http://www.w3.org/2000/svg">
<path d="M12.216 13.9037H9.01396C8.25271 13.9037 7.63647 14.5199 7.63647 15.2812V21.4679H12.216V13.9037V13.9037Z" stroke="#292D32" stroke-width="1.5" stroke-miterlimit="10" stroke-linecap="round" stroke-linejoin="round"/>
<path d="M15.4197 8.40576H13.583C12.8218 8.40576 12.2056 9.02203 12.2056 9.78328V21.4558H16.7852V9.78328C16.7852 9.02203 16.181 8.40576 15.4197 8.40576Z" stroke="#292D32" stroke-width="1.5" stroke-miterlimit="10" stroke-linecap="round" stroke-linejoin="round"/>
<path d="M19.9955 15.9578H16.7935V21.4558H21.3731V17.3353C21.361 16.5741 20.7447 15.9578 19.9955 15.9578Z" stroke="#292D32" stroke-width="1.5" stroke-miterlimit="10" stroke-linecap="round" stroke-linejoin="round"/>
<path d="M10.8748 27.0141H18.1248C24.1665 27.0141 26.5832 24.5975 26.5832 18.5558V11.3058C26.5832 5.26414 24.1665 2.84747 18.1248 2.84747H10.8748C4.83317 2.84747 2.4165 5.26414 2.4165 11.3058V18.5558C2.4165 24.5975 4.83317 27.0141 10.8748 27.0141Z" stroke="#292D32" stroke-width="1.5" stroke-linecap="round" stroke-linejoin="round"/>
</svg>
